# xmcd CD database file
#
# Track frame offsets:
#	150
#	22112
#	44860
#	73955
#	105350
#	125772
#	147492
#	164700
#
# Disc length: 2557 seconds
#
# Revision: 1
# Processed by: cddbd v1.5.2PL0 Copyright (c) Steve Scherf et al.
# Submitted via: CDex 1.51
#
DISCID=8309fb08
DTITLE=ADVENTURES OF JAZZ - THE SOUND OF JAZZ
DYEAR=1988
DGENRE=Jazz
TTITLE0=WILD MAN BLUES
TTITLE1=ROSETTA
TTITLE2=FINE AND MELLOW
TTITLE3=BLUES
TTITLE4=I LEFT MY BABY
TTITLE5=THE TRAIN AND THE RIVER
TTITLE6=NERVOUS
TTITLE7=DICKIE'S DREAM
EXTD=YEAR: 1988
EXTT0=
EXTT1=
EXTT2=
EXTT3=
EXTT4=
EXTT5=
EXTT6=
EXTT7=
PLAYORDER=
